<?xml version="1.0" encoding="UTF-8"?>
<svg width="128" height="128" viewBox="0 0 128 128" xmlns="http://www.w3.org/2000/svg">
  <defs>
    <linearGradient id="bg" x1="20" y1="12" x2="108" y2="116" gradientUnits="userSpaceOnUse">
      <stop offset="0" stop-color="#111827"/>
      <stop offset="1" stop-color="#1F2937"/>
    </linearGradient>
    <linearGradient id="paper" x1="34" y1="26" x2="84" y2="90" gradientUnits="userSpaceOnUse">
      <stop offset="0" stop-color="#FFFFFF"/>
      <stop offset="1" stop-color="#F3F4F6"/>
    </linearGradient>
  </defs>

  <rect x="8" y="8" width="112" height="112" rx="28" fill="url(#bg)"/>
  <rect x="8.5" y="8.5" width="111" height="111" rx="27.5" fill="none" stroke="#FFFFFF" stroke-opacity="0.08"/>

  <g transform="translate(30 20)">
    <path
      d="M10 8C10 3.58172 13.5817 0 18 0H41.3431C43.4648 0 45.4996 0.842855 46.9999 2.34315L58.6569 14.0001C60.1571 15.5004 61 17.5352 61 19.6569V60C61 64.4183 57.4183 68 53 68H18C13.5817 68 10 64.4183 10 60V8Z"
      fill="url(#paper)"
    />
    <path d="M51 1.8V14C51 16.2091 52.7909 18 55 18H59.2" fill="none" stroke="#D1D5DB" stroke-width="4" stroke-linecap="round" stroke-linejoin="round"/>
    <rect x="0" y="12" width="8" height="44" rx="4" fill="#FB7185"/>
    <rect x="21" y="22" width="28" height="6" rx="3" fill="#0F172A" opacity="0.9"/>
    <rect x="21" y="35" width="30" height="5" rx="2.5" fill="#CBD5E1"/>
    <rect x="21" y="46" width="24" height="5" rx="2.5" fill="#CBD5E1"/>
    <rect x="21" y="57" width="20" height="5" rx="2.5" fill="#CBD5E1"/>
  </g>

  <g transform="translate(78 76)">
    <circle cx="18" cy="18" r="18" fill="#14B8A6"/>
    <path
      d="M18 8.5L20.295 15.705L27.5 18L20.295 20.295L18 27.5L15.705 20.295L8.5 18L15.705 15.705L18 8.5Z"
      fill="#FFFFFF"
    />
    <circle cx="28" cy="9" r="3" fill="#FDBA74"/>
  </g>
</svg>
